<mxfile host="app.diagrams.net" modified="2024-03-12T19:02:55.063Z" agent="Mozilla/5.0 (Windows NT 10.0; Win64; x64) AppleWebKit/537.36 (KHTML, like Gecko) Chrome/122.0.0.0 Safari/537.36" version="22.1.21" etag="k6hoY15h9iafeNGlxgxS" type="github">
  <diagram name="Page-1" id="2KUXw5EwHMkuh5xnE8VL">
    <mxGraphModel>
      <root>
        <mxCell id="0" />
        <mxCell id="1" parent="0" />
      </root>
    </mxGraphModel>
  </diagram>
</mxfile>
